<?xml version="1.0" standalone="no"?>
<!DOCTYPE svg PUBLIC "-//W3C//DTD SVG 20010904//EN"
 "http://www.w3.org/TR/2001/REC-SVG-20010904/DTD/svg10.dtd">
<svg version="1.0" xmlns="http://www.w3.org/2000/svg"
 width="16.000000pt" height="16.000000pt" viewBox="0 0 16.000000 16.000000"
 preserveAspectRatio="xMidYMid meet">
<metadata>
Created by potrace 1.11, written by Peter Selinger 2001-2013
</metadata>
<g transform="translate(0.000000,16.000000) scale(0.003200,-0.003200)"
fill="#000000" stroke="none">
<path d="M4275 4429 c-79 -9 -116 -16 -173 -35 -191 -64 -343 -225 -395 -419
-30 -109 -38 -206 -42 -460 -2 -110 -3 -202 -4 -205 -1 -3 -63 -5 -138 -5
l-138 0 0 -165 0 -165 138 0 c86 0 137 -3 138 -10 1 -5 2 -518 3 -1140 l1
-1130 213 0 212 0 1 35 c0 19 0 531 1 1137 0 818 3 1103 12 1105 6 3 127 4
268 3 166 0 259 3 261 10 3 9 1 302 -2 315 0 3 -121 5 -268 5 l-268 0 1 195
c1 280 9 354 47 426 61 118 239 169 478 139 l56 -7 0 176 0 175 -26 5 c-81 17
-284 25 -376 15z"/>
<path d="M419 4328 c-1 -17 -1 -3621 0 -3628 1 -3 97 -5 214 -5 l212 0 0 178
c0 97 1 177 2 177 1 0 41 -59 89 -130 75 -111 96 -135 140 -160 224 -129 591
-170 889 -100 480 112 802 443 921 947 13 55 26 123 29 150 3 26 8 64 10 83 5
43 6 354 1 395 -13 111 -20 152 -43 245 -116 489 -442 809 -908 894 -123 23
-334 23 -460 1 -113 -20 -240 -58 -317 -95 -124 -60 -143 -78 -245 -222 -53
-76 -99 -138 -102 -138 -3 0 -5 319 -4 710 l2 710 -215 0 c-164 0 -214 -3
-215 -12z m1398 -1278 c205 -35 390 -175 500 -380 138 -257 185 -662 116
-1000 -71 -349 -268 -593 -548 -679 -244 -75 -519 -27 -717 126 -170 130 -267
319 -313 608 -10 64 -6 441 5 529 16 119 17 125 45 220 78 268 245 458 475
541 124 45 298 59 437 35z"/>
</g>
</svg>
